<?xml version="1.0"?>
<svg xmlns="http://www.w3.org/2000/svg" xmlns:xlink="http://www.w3.org/1999/xlink" version="1.1" id="Capa_1" x="0px" y="0px" viewBox="0 0 71.906 71.906" style="enable-background:new 0 0 71.906 71.906;" xml:space="preserve" width="512px" height="512px" class=""><g><g>
	<path d="M34.022,47.048H2.456c-0.553,0-1-0.447-1-1s0.447-1,1-1h31.566c0.553,0,1,0.447,1,1S34.575,47.048,34.022,47.048z" data-original="#000000" class="active-path" data-old_color="#000000" fill="#FDFEFF"/>
	<path d="M25.227,56.944c-0.256,0-0.512-0.098-0.707-0.293c-0.391-0.391-0.391-1.023,0-1.414l9.896-9.896   c0.391-0.391,1.023-0.391,1.414,0s0.391,1.023,0,1.414l-9.896,9.896C25.738,56.847,25.482,56.944,25.227,56.944z" data-original="#000000" class="active-path" data-old_color="#000000" fill="#FDFEFF"/>
	<path d="M35.122,47.048c-0.256,0-0.512-0.098-0.707-0.293l-9.99-9.99c-0.391-0.391-0.391-1.023,0-1.414s1.023-0.391,1.414,0   l9.99,9.99c0.391,0.391,0.391,1.023,0,1.414C35.634,46.95,35.378,47.048,35.122,47.048z" data-original="#000000" class="active-path" data-old_color="#000000" fill="#FDFEFF"/>
	<path d="M58.105,27.046H2.716c-0.553,0-1-0.448-1-1s0.447-1,1-1h55.39c0.553,0,1,0.448,1,1S58.658,27.046,58.105,27.046z" data-original="#000000" class="active-path" data-old_color="#000000" fill="#FDFEFF"/>
	<path d="M49.603,36.942c-0.256,0-0.512-0.098-0.707-0.293c-0.391-0.391-0.391-1.023,0-1.414l9.896-9.896   c0.391-0.391,1.023-0.391,1.414,0s0.391,1.023,0,1.414l-9.896,9.896C50.114,36.845,49.858,36.942,49.603,36.942z" data-original="#000000" class="active-path" data-old_color="#000000" fill="#FDFEFF"/>
	<path d="M59.498,27.046c-0.256,0-0.512-0.098-0.707-0.293l-9.99-9.991c-0.391-0.391-0.391-1.023,0-1.414s1.023-0.391,1.414,0   l9.99,9.991c0.391,0.391,0.391,1.023,0,1.414C60.01,26.949,59.754,27.046,59.498,27.046z" data-original="#000000" class="active-path" data-old_color="#000000" fill="#FDFEFF"/>
	<path d="M35.953,71.906C16.129,71.906,0,55.777,0,35.953C0,16.128,16.129,0,35.953,0s35.953,16.128,35.953,35.953   C71.906,55.777,55.777,71.906,35.953,71.906z M35.953,2C17.231,2,2,17.231,2,35.953s15.231,33.953,33.953,33.953   s33.953-15.231,33.953-33.953S54.675,2,35.953,2z" data-original="#000000" class="active-path" data-old_color="#000000" fill="#FDFEFF"/>
</g></g> </svg>
